<?xml version="1.0" encoding="UTF-8"?>
<svg id="Layer_1" data-name="Layer 1" xmlns="http://www.w3.org/2000/svg" viewBox="0 0 18.45 7.25">
  <defs>
    <style>
      .cls-1 {
        fill: none;
        stroke: #231f20;
        stroke-linecap: round;
        stroke-linejoin: round;
        stroke-width: .26px;
      }
    </style>
  </defs>
  <path class="cls-1" d="M.13,7.12h18.2V.13H.13v6.99Z"/>
  <line class="cls-1" x1="1.05" y1="3.04" x2="2.77" y2="1.32"/>
  <line class="cls-1" x1="2.77" y1="3.04" x2="1.05" y2="1.32"/>
  <line class="cls-1" x1="3.97" y1="3.04" x2="5.7" y2="1.32"/>
  <line class="cls-1" x1="5.7" y1="3.04" x2="3.97" y2="1.32"/>
  <line class="cls-1" x1="6.9" y1="3.04" x2="8.62" y2="1.32"/>
  <line class="cls-1" x1="8.62" y1="3.04" x2="6.9" y2="1.32"/>
  <line class="cls-1" x1="9.83" y1="3.04" x2="11.55" y2="1.32"/>
  <line class="cls-1" x1="11.55" y1="3.04" x2="9.83" y2="1.32"/>
  <line class="cls-1" x1="12.76" y1="3.04" x2="14.48" y2="1.32"/>
  <line class="cls-1" x1="14.48" y1="3.04" x2="12.76" y2="1.32"/>
  <line class="cls-1" x1="15.68" y1="3.04" x2="17.41" y2="1.32"/>
  <line class="cls-1" x1="17.41" y1="3.04" x2="15.68" y2="1.32"/>
  <line class="cls-1" x1="1.05" y1="5.93" x2="2.77" y2="4.21"/>
  <line class="cls-1" x1="2.77" y1="5.93" x2="1.05" y2="4.21"/>
  <line class="cls-1" x1="3.97" y1="5.93" x2="5.7" y2="4.21"/>
  <line class="cls-1" x1="5.7" y1="5.93" x2="3.97" y2="4.21"/>
  <line class="cls-1" x1="6.9" y1="5.93" x2="8.62" y2="4.21"/>
  <line class="cls-1" x1="8.62" y1="5.93" x2="6.9" y2="4.21"/>
  <line class="cls-1" x1="9.83" y1="5.93" x2="11.55" y2="4.21"/>
  <line class="cls-1" x1="11.55" y1="5.93" x2="9.83" y2="4.21"/>
  <line class="cls-1" x1="12.76" y1="5.93" x2="14.48" y2="4.21"/>
  <line class="cls-1" x1="14.48" y1="5.93" x2="12.76" y2="4.21"/>
  <line class="cls-1" x1="15.68" y1="5.93" x2="17.41" y2="4.21"/>
  <line class="cls-1" x1="17.41" y1="5.93" x2="15.68" y2="4.21"/>
</svg>